<svg width="86" height="86" viewBox="0 0 86 86" fill="none" xmlns="http://www.w3.org/2000/svg">
<path d="M43 68.0834C40.8739 68.0834 38.7955 67.4529 37.0276 66.2717C35.2598 65.0905 33.8819 63.4115 33.0683 61.4472C32.2547 59.4829 32.0418 57.3215 32.4566 55.2362C32.8714 53.1509 33.8952 51.2354 35.3986 49.732C36.902 48.2286 38.8175 47.2047 40.9028 46.7899C42.9881 46.3751 45.1495 46.588 47.1139 47.4017C49.0782 48.2153 50.7571 49.5932 51.9383 51.361C53.1195 53.1288 53.75 55.2072 53.75 57.3334C53.7472 60.1836 52.6137 62.9162 50.5983 64.9316C48.5829 66.947 45.8502 68.0805 43 68.0834ZM43 50.1667C41.5826 50.1667 40.197 50.587 39.0184 51.3745C37.8399 52.162 36.9213 53.2813 36.3789 54.5908C35.8364 55.9004 35.6945 57.3413 35.971 58.7315C36.2476 60.1217 36.9301 61.3987 37.9324 62.401C38.9347 63.4033 40.2117 64.0858 41.6019 64.3623C42.9921 64.6389 44.433 64.4969 45.7426 63.9545C47.0521 63.4121 48.1714 62.4935 48.9589 61.315C49.7464 60.1364 50.1667 58.7508 50.1667 57.3334C50.1667 55.4327 49.4116 53.6098 48.0676 52.2658C46.7236 50.9218 44.9007 50.1667 43 50.1667Z" fill="#0C84CA"/>
<path d="M55.5415 86H30.4582C29.983 86 29.5273 85.8112 29.1913 85.4752C28.8553 85.1392 28.6665 84.6835 28.6665 84.2083V73.4583C28.6693 71.0833 29.6141 68.8064 31.2935 67.127C32.9729 65.4476 35.2498 64.5028 37.6248 64.5H48.3748C50.7499 64.5028 53.0268 65.4476 54.7062 67.127C56.3856 68.8064 57.3303 71.0833 57.3332 73.4583V84.2083C57.3332 84.6835 57.1444 85.1392 56.8084 85.4752C56.4724 85.8112 56.0167 86 55.5415 86ZM32.2498 82.4167H53.7498V73.4583C53.7498 72.0328 53.1835 70.6656 52.1755 69.6576C51.1675 68.6496 49.8004 68.0833 48.3748 68.0833H37.6248C36.1993 68.0833 34.8321 68.6496 33.8241 69.6576C32.8161 70.6656 32.2498 72.0328 32.2498 73.4583V82.4167Z" fill="#0C84CA"/>
<path d="M64.5 66.2917C64.2645 66.2924 64.0312 66.2461 63.8138 66.1555C63.4865 66.0198 63.2068 65.7901 63.01 65.4954C62.8132 65.2007 62.7082 64.8543 62.7083 64.5V57.3333H57.3333V53.75H64.5C64.9752 53.75 65.4309 53.9388 65.7669 54.2748C66.1029 54.6108 66.2917 55.0665 66.2917 55.5417V60.1749L72.1916 54.275C72.5275 53.9389 72.9832 53.7501 73.4583 53.75H80.625C81.1002 53.75 81.5559 53.5612 81.8919 53.2252C82.2279 52.8892 82.4167 52.4335 82.4167 51.9583V37.625C82.4167 37.1498 82.2279 36.6941 81.8919 36.3581C81.5559 36.0221 81.1002 35.8333 80.625 35.8333H48.375C47.8998 35.8333 47.4441 36.0221 47.1081 36.3581C46.7721 36.6941 46.5833 37.1498 46.5833 37.625V43H43V37.625C43 36.1995 43.5663 34.8323 44.5743 33.8243C45.5823 32.8163 46.9495 32.25 48.375 32.25H80.625C82.0505 32.25 83.4177 32.8163 84.4257 33.8243C85.4337 34.8323 86 36.1995 86 37.625V51.9583C86 53.3839 85.4337 54.751 84.4257 55.759C83.4177 56.767 82.0505 57.3333 80.625 57.3333H74.2001L65.7667 65.7667C65.4308 66.1027 64.9751 66.2916 64.5 66.2917V66.2917Z" fill="#0C84CA"/>
<path d="M78.8333 43H75.25V46.5833H78.8333V43Z" fill="#0C84CA"/>
<path d="M71.6668 43H51.9585V46.5833H71.6668V43Z" fill="#0C84CA"/>
<path d="M66.2917 10.75H1.79167C1.31649 10.75 0.86077 10.5612 0.524767 10.2252C0.188764 9.88923 0 9.43351 0 8.95833V5.375C0 3.94946 0.566293 2.58231 1.5743 1.5743C2.58231 0.566293 3.94946 0 5.375 0L62.7083 0C64.1339 0 65.501 0.566293 66.509 1.5743C67.517 2.58231 68.0833 3.94946 68.0833 5.375V8.95833C68.0833 9.43351 67.8946 9.88923 67.5586 10.2252C67.2226 10.5612 66.7668 10.75 66.2917 10.75ZM3.58333 7.16667H64.5V5.375C64.5 4.89982 64.3112 4.4441 63.9752 4.1081C63.6392 3.7721 63.1835 3.58333 62.7083 3.58333H5.375C4.89982 3.58333 4.4441 3.7721 4.1081 4.1081C3.7721 4.4441 3.58333 4.89982 3.58333 5.375V7.16667Z" fill="#0C84CA"/>
<path d="M64.4998 8.95831H60.9165V28.6666H64.4998V8.95831Z" fill="#0C84CA"/>
<path d="M28.6668 59.125H8.9585C7.53296 59.125 6.16581 58.5587 5.1578 57.5507C4.14979 56.5427 3.5835 55.1755 3.5835 53.75V8.95831H7.16683V53.75C7.16683 54.2252 7.35559 54.6809 7.6916 55.0169C8.0276 55.3529 8.48332 55.5416 8.9585 55.5416H28.6668V59.125Z" fill="#0C84CA"/>
<path d="M19.7083 51.9583H16.125C14.6995 51.9583 13.3323 51.392 12.3243 50.384C11.3163 49.376 10.75 48.0089 10.75 46.5833V43H14.3333V46.5833C14.3333 47.0585 14.5221 47.5142 14.8581 47.8502C15.1941 48.1862 15.6498 48.375 16.125 48.375H19.7083V51.9583Z" fill="#0C84CA"/>
<path d="M14.3333 35.8334H10.75V39.4167H14.3333V35.8334Z" fill="#0C84CA"/>
<path d="M34.0418 43C31.207 43 28.4358 42.1593 26.0787 40.5844C23.7216 39.0094 21.8844 36.7709 20.7996 34.1518C19.7147 31.5327 19.4309 28.6508 19.9839 25.8704C20.537 23.09 21.9021 20.536 23.9066 18.5315C25.9112 16.5269 28.4651 15.1618 31.2455 14.6087C34.0259 14.0557 36.9079 14.3395 39.527 15.4244C42.146 16.5092 44.3846 18.3464 45.9596 20.7035C47.5345 23.0606 48.3752 25.8318 48.3752 28.6667H44.7918C44.7918 26.5405 44.1614 24.4621 42.9801 22.6943C41.7989 20.9264 40.12 19.5486 38.1557 18.7349C36.1914 17.9213 34.0299 17.7084 31.9446 18.1232C29.8593 18.538 27.9439 19.5618 26.4404 21.0653C24.937 22.5687 23.9132 24.4841 23.4984 26.5694C23.0836 28.6547 23.2965 30.8162 24.1101 32.7805C24.9238 34.7448 26.3016 36.4237 28.0695 37.6049C29.8373 38.7862 31.9157 39.4166 34.0418 39.4166V43Z" fill="#0C84CA"/>
<path d="M26.3498 38.8917L23.8164 36.3583L32.2498 27.9249V16.125H35.8331V28.6667C35.833 29.1418 35.6442 29.5975 35.3082 29.9334L26.3498 38.8917Z" fill="#0C84CA"/>
</svg>
