<svg width="86" height="86" viewBox="0 0 86 86" fill="none" xmlns="http://www.w3.org/2000/svg">
<path d="M17.9167 86H8.95833C6.58331 85.9972 4.30637 85.0524 2.62698 83.373C0.94758 81.6936 0.00284491 79.4167 0 77.0417L0 16.125C0.000101475 15.6499 0.188932 15.1942 0.524958 14.8583L14.8583 0.524958C15.1942 0.188932 15.6499 0.000101475 16.125 0H55.5417C57.9167 0.00284491 60.1936 0.94758 61.873 2.62698C63.5524 4.30637 64.4972 6.58331 64.5 8.95833V14.3333H60.9167V8.95833C60.9167 7.53279 60.3504 6.16564 59.3424 5.15763C58.3344 4.14963 56.9672 3.58333 55.5417 3.58333H16.8667L3.58333 16.8667V77.0417C3.58333 78.4672 4.14963 79.8344 5.15763 80.8424C6.16564 81.8504 7.53279 82.4167 8.95833 82.4167H17.9167V86Z" fill="#0C84CA"/>
<path d="M55.5418 86H46.5835V82.4166H55.5418C56.9674 82.4166 58.3345 81.8503 59.3425 80.8423C60.3505 79.8343 60.9168 78.4672 60.9168 77.0416V39.4166H64.5002V77.0416C64.4973 79.4166 63.5526 81.6936 61.8732 83.373C60.1938 85.0524 57.9169 85.9971 55.5418 86V86Z" fill="#0C84CA"/>
<path d="M12.5418 17.9167H8.9585V14.3334H12.5418C13.017 14.3334 13.4727 14.1446 13.8087 13.8086C14.1447 13.4726 14.3335 13.0169 14.3335 12.5417V1.79169H17.9168V12.5417C17.9168 13.9672 17.3505 15.3344 16.3425 16.3424C15.3345 17.3504 13.9674 17.9167 12.5418 17.9167V17.9167Z" fill="#0C84CA"/>
<path d="M56.9212 39.4167C56.6856 39.4169 56.4523 39.3706 56.2347 39.2805C56.017 39.1904 55.8192 39.0583 55.6527 38.8917L50.6916 33.9306C50.3557 33.5946 50.167 33.139 50.167 32.6639C50.167 32.1888 50.3557 31.7332 50.6916 31.3972L77.9787 4.10832C78.3146 3.77243 78.7703 3.58374 79.2454 3.58374C79.7204 3.58374 80.1761 3.77243 80.5121 4.10832L85.475 9.06944C85.8109 9.40543 85.9996 9.86106 85.9996 10.3361C85.9996 10.8112 85.8109 11.2669 85.475 11.6029L58.1879 38.8917C57.852 39.2278 57.3963 39.4166 56.9212 39.4167ZM54.4917 32.6639L56.9212 35.0916L81.6749 10.3361L79.2454 7.90844L54.4917 32.6639Z" fill="#0C84CA"/>
<path d="M57.3332 39.4167H51.9582C51.483 39.4167 51.0273 39.2279 50.6913 38.8919C50.3553 38.5559 50.1665 38.1002 50.1665 37.625V32.25H53.7498V35.8333H57.3332V39.4167Z" fill="#0C84CA"/>
<path d="M35.9999 77V73.4168C38.651 73.414 41.1927 72.4693 43.0673 70.7899C44.9419 69.1106 45.9965 66.8338 45.9996 64.4588V52.1094C46.0178 51.6628 45.8636 51.2243 45.5631 50.8676C45.2626 50.511 44.8341 50.2579 44.3497 50.1512C44.0617 50.1053 43.766 50.1166 43.4834 50.1842C43.2008 50.2519 42.9382 50.3743 42.7141 50.5427C42.49 50.7111 42.3099 50.9216 42.1865 51.1591C42.0631 51.3967 41.9993 51.6556 41.9997 51.9177C41.9997 52.3928 41.789 52.8485 41.414 53.1845C41.0389 53.5205 40.5302 53.7093 39.9998 53.7093C39.4694 53.7093 38.9607 53.5205 38.5856 53.1845C38.2106 52.8485 37.9999 52.3928 37.9999 51.9177C37.9999 51.4425 37.7892 50.9868 37.4141 50.6508C37.039 50.3148 36.5303 50.1261 35.9999 50.1261C35.4695 50.1261 34.9608 50.3148 34.5857 50.6508C34.2107 50.9868 34 51.4425 34 51.9177C34 52.3928 33.7893 52.8485 33.4142 53.1845C33.0391 53.5205 32.5304 53.7093 32 53.7093C31.4696 53.7093 30.9609 53.5205 30.5858 53.1845C30.2108 52.8485 30.0001 52.3928 30.0001 51.9177C30.0001 51.4425 29.7894 50.9868 29.4143 50.6508C29.0392 50.3148 28.5305 50.1261 28.0001 50.1261C27.4697 50.1261 26.961 50.3148 26.586 50.6508C26.2109 50.9868 26.0002 51.4425 26.0002 51.9177C26.0002 52.3928 25.7895 52.8485 25.4144 53.1845C25.0393 53.5205 24.5307 53.7093 24.0002 53.7093C23.4698 53.7093 22.9611 53.5205 22.5861 53.1845C22.211 52.8485 22.0003 52.3928 22.0003 51.9177V39.3765C22.0008 39.1143 21.937 38.8552 21.8134 38.6175C21.6899 38.3797 21.5096 38.1692 21.2853 38.0007C21.061 37.8323 20.7981 37.7099 20.5153 37.6424C20.2324 37.5749 19.9365 37.5638 19.6484 37.61C19.1645 37.7174 18.7367 37.9707 18.4366 38.3272C18.1366 38.6838 17.9825 39.122 18.0004 39.5682V64.4588C18.0036 66.8338 19.0581 69.1106 20.9328 70.7899C22.8074 72.4693 25.349 73.414 28.0001 73.4168V77C24.2885 76.9962 20.7301 75.6737 18.1056 73.3226C15.4811 70.9715 14.0047 67.7838 14.0005 64.4588V39.5682C13.982 38.2726 14.4727 37.0124 15.3868 36.0082C16.3008 35.004 17.58 34.3198 19.0004 34.0752C19.8609 33.9449 20.7427 33.9843 21.5844 34.1907C22.4262 34.3971 23.2075 34.7655 23.874 35.2703C24.5404 35.775 25.0759 36.4039 25.4431 37.1131C25.8104 37.8223 26.0005 38.5947 26.0002 39.3765V46.8492C27.0181 46.5495 28.1052 46.4902 29.1563 46.6769C30.2073 46.8637 31.1868 47.2902 32 47.9152C33.0988 47.0316 34.5233 46.5429 35.9999 46.5429C37.4765 46.5429 38.901 47.0316 39.9998 47.9152L40.1158 47.8239C40.7822 47.3174 41.5638 46.9471 42.4062 46.7389C43.2487 46.5306 44.1316 46.4894 44.9937 46.6181C46.4148 46.8615 47.6951 47.5451 48.6103 48.549C49.5255 49.5529 50.0173 50.8133 49.9995 52.1094V64.4588C49.9953 67.7838 48.519 70.9715 45.8945 73.3226C43.2699 75.6737 39.7115 76.9962 35.9999 77V77Z" fill="#0C84CA"/>
<path d="M26 52H22V57H26V52Z" fill="#0C84CA"/>
<path d="M34 52H30V57H34V52Z" fill="#0C84CA"/>
<path d="M42 52H38V57H42V52Z" fill="#0C84CA"/>
<path d="M41.2083 86H23.2917C22.8165 86 22.3608 85.8113 22.0248 85.4753C21.6888 85.1393 21.5 84.6836 21.5 84.2084V73.4584H25.0833V82.4167H39.4167V73.4584H43V84.2084C43 84.6836 42.8112 85.1393 42.4752 85.4753C42.1392 85.8113 41.6835 86 41.2083 86Z" fill="#0C84CA"/>
<path d="M26.875 17.9166C25.8119 17.9166 24.7727 17.6014 23.8888 17.0108C23.0049 16.4202 22.316 15.5807 21.9091 14.5986C21.5023 13.6164 21.3959 12.5357 21.6033 11.493C21.8107 10.4504 22.3226 9.49264 23.0743 8.74093C23.826 7.98922 24.7837 7.4773 25.8264 7.26991C26.869 7.06251 27.9498 7.16895 28.9319 7.57578C29.9141 7.9826 30.7535 8.67152 31.3442 9.55544C31.9348 10.4394 32.25 11.4786 32.25 12.5416C32.25 13.9672 31.6837 15.3343 30.6757 16.3423C29.6677 17.3503 28.3005 17.9166 26.875 17.9166V17.9166ZM26.875 10.75C26.5206 10.75 26.1742 10.855 25.8796 11.0519C25.585 11.2488 25.3553 11.5286 25.2197 11.856C25.0841 12.1834 25.0486 12.5436 25.1178 12.8912C25.1869 13.2387 25.3575 13.558 25.6081 13.8085C25.8587 14.0591 26.1779 14.2297 26.5255 14.2989C26.873 14.368 27.2333 14.3325 27.5606 14.1969C27.888 14.0613 28.1678 13.8317 28.3647 13.537C28.5616 13.2424 28.6667 12.896 28.6667 12.5416C28.6667 12.0664 28.4779 11.6107 28.1419 11.2747C27.8059 10.9387 27.3502 10.75 26.875 10.75Z" fill="#0C84CA"/>
<path d="M39.4165 43C38.3534 43 37.3142 42.6848 36.4303 42.0942C35.5464 41.5035 34.8575 40.6641 34.4507 39.6819C34.0438 38.6998 33.9374 37.619 34.1448 36.5764C34.3522 35.5337 34.8641 34.576 35.6158 33.8243C36.3675 33.0726 37.3252 32.5607 38.3679 32.3533C39.4105 32.1459 40.4913 32.2523 41.4734 32.6591C42.4556 33.066 43.295 33.7549 43.8857 34.6388C44.4763 35.5227 44.7915 36.5619 44.7915 37.625C44.7915 39.0505 44.2252 40.4177 43.2172 41.4257C42.2092 42.4337 40.842 43 39.4165 43V43ZM39.4165 35.8333C39.0621 35.8333 38.7157 35.9384 38.4211 36.1353C38.1265 36.3322 37.8968 36.612 37.7612 36.9394C37.6256 37.2667 37.5901 37.627 37.6593 37.9745C37.7284 38.3221 37.899 38.6413 38.1496 38.8919C38.4002 39.1425 38.7194 39.3131 39.067 39.3822C39.4145 39.4514 39.7748 39.4159 40.1021 39.2803C40.4295 39.1447 40.7094 38.915 40.9062 38.6204C41.1031 38.3258 41.2082 37.9794 41.2082 37.625C41.2082 37.1498 41.0194 36.6941 40.6834 36.3581C40.3474 36.0221 39.8917 35.8333 39.4165 35.8333Z" fill="#0C84CA"/>
<path d="M51.9583 35.8334H43V39.4167H51.9583V35.8334Z" fill="#0C84CA"/>
<path d="M41.2085 34.0417H37.6252C37.6252 14.9676 30.4836 14.3333 30.4102 14.3333L30.4585 10.75C30.8975 10.75 41.2085 11.0152 41.2085 34.0417Z" fill="#0C84CA"/>
<path d="M57.3333 16.125H53.75V12.5416C53.75 12.0664 53.5612 11.6107 53.2252 11.2747C52.8892 10.9387 52.4335 10.75 51.9583 10.75H48.375V7.16663H51.9583C53.3839 7.16663 54.751 7.73292 55.759 8.74093C56.767 9.74894 57.3333 11.1161 57.3333 12.5416V16.125Z" fill="#0C84CA"/>
</svg>
