<svg width="24" height="20" viewBox="0 0 24 20" fill="none" xmlns="http://www.w3.org/2000/svg">
<g clip-path="url(#clip0)">
<path d="M20.8704 2.91678L21.1882 3.84169C21.6553 3.78501 22.1175 3.69708 22.5715 3.57873C22.168 4.00278 21.725 4.38919 21.248 4.73249L21.0214 4.89553L21.0413 5.17395C21.0548 5.36321 21.055 5.55538 21.055 5.76833C21.055 12.0421 16.2766 19.2533 7.557 19.2533H7.55663C5.64586 19.2548 3.76449 18.8505 2.03409 18.0761C4.04976 17.9096 5.97974 17.1561 7.58069 15.8997L8.68524 15.0328L7.28139 15.0064C6.35784 14.9891 5.46275 14.6838 4.721 14.1333C4.19539 13.7432 3.76537 13.2438 3.4583 12.6731C3.98004 12.6853 4.5024 12.6231 5.00941 12.4873L4.97923 11.5143C3.97856 11.3117 3.07881 10.7691 2.43262 9.97863C1.94468 9.38175 1.62401 8.67129 1.49638 7.91953C2.0249 8.10876 2.5814 8.2151 3.14609 8.23308L4.88908 8.28856L3.44029 7.31794C2.25474 6.52367 1.474 5.17334 1.47401 3.63733L1.47399 3.63426C1.47069 3.09594 1.56798 2.56392 1.75866 2.06494C4.25544 4.80832 7.79362 6.60078 11.7564 6.78778L12.4177 6.81898L12.2668 6.17436C12.0449 5.22637 12.1422 4.23162 12.5436 3.34459C12.945 2.45756 13.628 1.72788 14.4867 1.26887C15.3453 0.809853 16.3315 0.647185 17.292 0.806125C18.2526 0.965066 19.1338 1.43672 19.7988 2.14785L19.9891 2.35136L20.2623 2.29657C20.9238 2.16391 21.5632 1.9718 22.1738 1.72537C21.8258 2.20169 21.384 2.60807 20.8704 2.91678Z" fill="black" stroke="black"/>
</g>
<defs>
<clipPath id="clip0">
<rect width="24" height="19.5065" fill="white" transform="translate(0 0.246826)"/>
</clipPath>
</defs>
</svg>
