<svg width="375" height="364" viewBox="0 0 375 364" fill="none" xmlns="http://www.w3.org/2000/svg">
<g clip-path="url(#clip0)">
<path d="M140.595 48C129.497 48 120.5 57.6258 120.5 69.4996C120.5 81.3747 129.497 91 140.595 91C151.693 91 160.69 81.3747 160.69 69.4996C160.69 57.6266 151.694 48.001 140.595 48.001L140.595 48V48ZM149.81 79.0086C149.45 79.642 148.678 79.8404 148.088 79.4545C143.369 76.3688 137.43 75.6718 130.435 77.3814C129.761 77.5468 129.089 77.0946 128.936 76.3737C128.781 75.6525 129.202 74.9337 129.878 74.7694C137.532 72.897 144.098 73.7029 149.395 77.1657C149.985 77.5534 150.172 78.3776 149.81 79.0091L149.81 79.0086V79.0086ZM152.27 73.1553C151.816 73.9442 150.851 74.1917 150.115 73.7073C144.715 70.1556 136.48 69.1268 130.091 71.2018C129.262 71.4696 128.387 70.9699 128.136 70.085C127.886 69.1985 128.353 68.2639 129.181 67.9944C136.478 65.6252 145.551 66.7728 151.754 70.8511C152.491 71.3363 152.723 72.3684 152.27 73.1555L152.27 73.1553ZM152.481 67.0593C146.004 62.9436 135.319 62.5652 129.136 64.5731C128.143 64.8953 127.093 64.2956 126.792 63.2332C126.491 62.1703 127.051 61.0476 128.045 60.7246C135.143 58.4191 146.943 58.8646 154.399 63.6006C155.293 64.1677 155.586 65.4018 155.056 66.3561C154.528 67.3117 153.372 67.6267 152.481 67.0593H152.481V67.0593ZM175.172 67.848C171.702 66.9628 171.085 66.3415 171.085 65.036C171.085 63.8026 172.17 62.9726 173.784 62.9726C175.348 62.9726 176.9 63.6029 178.526 64.9004C178.575 64.9397 178.637 64.9554 178.698 64.9451C178.758 64.9354 178.812 64.8997 178.848 64.846L180.542 62.291C180.611 62.1857 180.592 62.0407 180.499 61.9603C178.563 60.2984 176.383 59.4905 173.835 59.4905C170.089 59.4905 167.472 61.8958 167.472 65.3374C167.472 69.028 169.73 70.3348 173.63 71.3435C176.95 72.1617 177.511 72.8472 177.511 74.0726C177.511 75.4305 176.378 76.2746 174.554 76.2746C172.529 76.2746 170.877 75.5447 169.029 73.8325C168.983 73.7902 168.92 73.7709 168.862 73.7745C168.801 73.7799 168.745 73.8102 168.706 73.8603L166.807 76.279C166.727 76.3794 166.737 76.5293 166.829 76.6161C168.979 78.6697 171.624 79.7544 174.477 79.7544C178.514 79.7544 181.123 77.3945 181.123 73.7419C181.13 70.6585 179.405 68.9512 175.179 67.8514L175.172 67.848V67.848ZM190.256 64.187C188.506 64.187 187.071 64.9243 185.887 66.4352V64.7346C185.887 64.6003 185.785 64.4909 185.66 64.4909H182.553C182.428 64.4909 182.326 64.6003 182.326 64.7346V83.6309C182.326 83.7651 182.428 83.8745 182.553 83.8745H185.66C185.785 83.8745 185.887 83.7652 185.887 83.6309V77.6661C187.071 79.0874 188.506 79.7819 190.256 79.7819C193.507 79.7819 196.798 77.1041 196.798 71.9853C196.803 66.8652 193.511 64.1867 190.259 64.1867L190.256 64.187ZM193.186 71.9853C193.186 74.592 191.685 76.411 189.536 76.411C187.412 76.411 185.809 74.5093 185.809 71.9853C185.809 69.4616 187.412 67.5597 189.536 67.5597C191.65 67.5595 193.186 69.4203 193.186 71.9851L193.186 71.9853V71.9853ZM205.234 64.187C201.047 64.187 197.767 67.6365 197.767 72.041C197.767 76.3976 201.024 79.8109 205.183 79.8109C209.385 79.8109 212.675 76.3729 212.675 71.9853C212.675 67.6128 209.407 64.1875 205.234 64.1875L205.234 64.187V64.187ZM205.234 76.4369C203.007 76.4369 201.328 74.5224 201.328 71.984C201.328 69.4349 202.949 67.5851 205.183 67.5851C207.424 67.5851 209.114 69.4996 209.114 72.0397C209.114 74.5884 207.483 76.4369 205.234 76.4369H205.234V76.4369ZM221.616 64.4909H218.197V60.7513C218.197 60.6173 218.096 60.5079 217.971 60.5079H214.864C214.739 60.5079 214.637 60.6173 214.637 60.7513V64.4909H213.143C213.018 64.4909 212.917 64.6003 212.917 64.7346V67.5913C212.917 67.7253 213.018 67.8349 213.143 67.8349H214.637V75.2266C214.637 78.2137 216.026 79.7282 218.767 79.7282C219.881 79.7282 220.806 79.482 221.677 78.9534C221.748 78.911 221.792 78.8294 221.792 78.7426V76.0223C221.792 75.9383 221.751 75.859 221.684 75.8151C221.616 75.7696 221.532 75.7673 221.462 75.804C220.864 76.1262 220.286 76.2749 219.639 76.2749C218.642 76.2749 218.197 75.7907 218.197 74.7055V67.8362H221.616C221.742 67.8362 221.843 67.7269 221.843 67.5926V64.7361C221.847 64.6019 221.747 64.4925 221.619 64.4925L221.616 64.4909V64.4909ZM233.528 64.5056V64.0463C233.528 62.6951 234.012 62.0925 235.098 62.0925C235.746 62.0925 236.266 62.2301 236.849 62.4381C236.92 62.4622 236.995 62.4501 237.053 62.4042C237.113 62.3582 237.147 62.2845 237.147 62.2065V59.4055C237.147 59.2984 237.083 59.2037 236.987 59.1721C236.371 58.9762 235.583 58.7752 234.404 58.7752C231.535 58.7752 230.018 60.5041 230.018 63.7731V64.4765H228.526C228.4 64.4765 228.298 64.5859 228.298 64.7199V67.5913C228.298 67.7253 228.4 67.8349 228.526 67.8349H230.018V79.2363C230.018 79.3706 230.119 79.4799 230.245 79.4799H233.351C233.477 79.4799 233.579 79.3706 233.579 79.2363V67.8357H236.48L240.923 79.2343C240.419 80.432 239.923 80.6702 239.246 80.6702C238.698 80.6702 238.122 80.4954 237.532 80.1503C237.477 80.1177 237.411 80.1123 237.351 80.1321C237.292 80.1544 237.242 80.2017 237.217 80.2633L236.164 82.7349C236.114 82.8517 236.157 82.9888 236.262 83.0494C237.361 83.6863 238.354 83.9582 239.58 83.9582C241.874 83.9582 243.142 82.815 244.26 79.7393L249.649 64.8383C249.677 64.7633 249.668 64.6786 249.625 64.6121C249.583 64.5461 249.514 64.5063 249.439 64.5063H246.204C246.107 64.5063 246.021 64.5723 245.989 64.6696L242.676 74.7948L239.047 64.6629C239.014 64.5687 238.929 64.5063 238.835 64.5063H233.527L233.528 64.5056V64.5056ZM226.622 64.4909H223.515C223.389 64.4909 223.287 64.6003 223.287 64.7346V79.2363C223.287 79.3706 223.389 79.48 223.515 79.48H226.622C226.747 79.48 226.849 79.3706 226.849 79.2363V64.7356C226.849 64.7036 226.844 64.6718 226.832 64.6422C226.821 64.6126 226.804 64.5857 226.783 64.5631C226.762 64.5404 226.736 64.5225 226.709 64.5103C226.681 64.4981 226.651 64.4919 226.621 64.492L226.622 64.4909ZM225.086 57.8879C223.855 57.8879 222.856 58.9539 222.856 60.2707C222.856 61.5883 223.855 62.6555 225.086 62.6555C226.316 62.6555 227.314 61.5883 227.314 60.2707C227.314 58.9542 226.316 57.8879 225.087 57.8879H225.086V57.8879ZM252.302 69.1535C251.073 69.1535 250.116 68.097 250.116 66.8141C250.116 65.5312 251.085 64.4627 252.314 64.4627C253.543 64.4627 254.5 65.5189 254.5 66.8008C254.5 68.0837 253.531 69.1535 252.302 69.1535H252.302V69.1535ZM252.314 64.6953C251.194 64.6953 250.347 65.6478 250.347 66.8141C250.347 67.98 251.188 68.9196 252.303 68.9196C253.423 68.9196 254.271 67.9679 254.271 66.8008C254.271 65.635 253.429 64.6953 252.315 64.6953H252.314V64.6953ZM252.799 67.0413L253.417 67.9677H252.896L252.339 67.1179H251.86V67.9677H251.424V65.5122H252.447C252.981 65.5122 253.331 65.8041 253.331 66.2955C253.334 66.6981 253.115 66.9441 252.801 67.0414H252.799V67.0413ZM252.429 65.9335H251.86V66.7102H252.429C252.714 66.7102 252.883 66.5615 252.883 66.3215C252.883 66.0689 252.713 65.9336 252.43 65.9336H252.429V65.9335Z" fill="#BFC3E0"/>
</g>
<path fill-rule="evenodd" clip-rule="evenodd" d="M172.687 154.131L170.858 162.633H166.652L173.601 131.822H178.583L185.121 162.633H180.869L179.086 154.131H172.687ZM178.583 150.703L177.166 143.342C176.755 141.239 176.343 138.497 176.024 136.302H175.84C175.521 138.542 175.062 141.376 174.653 143.342L173.19 150.703H178.583ZM201.174 131V156.919C201.174 158.611 201.266 161.08 201.356 162.634H197.654L197.38 159.937H197.243C196.511 161.491 194.82 163 192.581 163C188.466 163 185.952 158.519 185.952 151.618C185.952 143.755 189.288 140.052 192.809 140.052C194.591 140.052 196.008 140.875 196.786 142.566H196.877V131H201.174V131ZM196.876 148.874C196.876 148.463 196.876 147.96 196.831 147.502C196.602 145.491 195.459 143.754 193.906 143.754C191.208 143.754 190.294 147.502 190.294 151.617C190.294 156.188 191.483 159.388 193.768 159.388C194.728 159.388 196.008 158.885 196.739 156.234C196.831 155.868 196.876 155.319 196.876 154.818V148.874V148.874ZM211.41 162.999C206.976 162.999 203.776 159.205 203.776 151.572C203.776 143.48 207.569 140.051 211.638 140.051C216.026 140.051 219.18 143.982 219.18 151.48C219.18 160.303 214.837 162.999 211.455 162.999H211.41ZM211.546 159.617C214.197 159.617 214.792 154.908 214.792 151.526C214.792 148.188 214.198 143.435 211.456 143.435C208.621 143.435 208.073 148.188 208.073 151.526C208.073 155.228 208.713 159.617 211.501 159.617H211.546ZM221.771 131H226.067V142.931H226.159C227.301 140.92 228.856 140.051 230.821 140.051C234.615 140.051 236.993 144.348 236.993 151.16C236.993 159.113 233.747 162.999 230.09 162.999C227.896 162.999 226.661 161.81 225.701 159.844H225.519L225.29 162.633H221.588C221.679 161.125 221.771 158.611 221.771 156.918V131V131ZM226.067 154.77C226.067 155.274 226.113 155.777 226.25 156.142C226.935 158.84 228.261 159.388 229.129 159.388C231.689 159.388 232.649 156.006 232.649 151.434C232.649 147.182 231.644 143.754 229.084 143.754C227.666 143.754 226.523 145.445 226.203 147.045C226.112 147.502 226.066 148.098 226.066 148.554V154.77H226.067V154.77ZM243.334 152.393C243.379 158.108 245.847 159.524 248.453 159.524C250.007 159.524 251.333 159.159 252.293 158.701L252.933 161.81C251.607 162.496 249.596 162.862 247.63 162.862C242.054 162.862 239.128 158.656 239.128 151.799C239.128 144.53 242.464 140.05 247.082 140.05C251.699 140.05 253.848 144.485 253.848 150.063C253.848 151.159 253.801 151.845 253.756 152.439L243.334 152.393V152.393ZM249.779 149.331C249.825 145.4 248.453 143.297 246.762 143.297C244.522 143.297 243.516 146.543 243.379 149.331H249.779Z" fill="#BFC3E0"/>
<path fill-rule="evenodd" clip-rule="evenodd" d="M142.435 131.904H155.271V162.633L142.435 131.904ZM133.393 131.904H120.547V162.633L133.393 131.904ZM137.915 143.229L146.093 162.633H140.734L138.288 156.453H132.302L137.915 143.229Z" fill="#BFC3E0"/>
<path fill-rule="evenodd" clip-rule="evenodd" d="M253.482 139.994C253.611 139.994 253.738 140.02 253.857 140.071C253.976 140.121 254.083 140.194 254.174 140.286C254.264 140.378 254.335 140.486 254.383 140.606C254.431 140.725 254.455 140.853 254.453 140.982C254.453 141.54 254.023 141.975 253.478 141.975C252.938 141.975 252.498 141.541 252.498 140.982C252.497 140.853 252.522 140.725 252.571 140.605C252.62 140.485 252.692 140.376 252.783 140.285C252.874 140.193 252.982 140.12 253.101 140.07C253.221 140.02 253.348 139.994 253.478 139.994H253.482ZM253.478 140.147C253.043 140.147 252.687 140.521 252.687 140.982C252.687 141.452 253.043 141.821 253.482 141.821C253.921 141.825 254.272 141.452 254.272 140.987C254.272 140.521 253.921 140.147 253.482 140.147H253.478ZM253.293 141.558H253.118V140.455C253.21 140.442 253.299 140.428 253.431 140.428C253.597 140.428 253.706 140.464 253.773 140.512C253.839 140.56 253.874 140.635 253.874 140.74C253.874 140.885 253.777 140.974 253.658 141.009V141.017C253.755 141.035 253.821 141.123 253.843 141.285C253.869 141.457 253.895 141.522 253.914 141.558H253.729C253.703 141.522 253.677 141.422 253.655 141.277C253.628 141.136 253.558 141.083 253.417 141.083H253.294V141.558H253.293V141.558ZM253.293 140.947H253.421C253.565 140.947 253.69 140.894 253.69 140.758C253.69 140.661 253.619 140.564 253.421 140.564C253.364 140.564 253.324 140.569 253.293 140.574V140.947V140.947ZM156.963 131.904C157.092 131.905 157.22 131.931 157.338 131.981C157.457 132.031 157.564 132.104 157.655 132.196C157.745 132.288 157.816 132.397 157.864 132.516C157.912 132.636 157.936 132.764 157.934 132.893C157.934 133.45 157.504 133.885 156.959 133.885C156.419 133.885 155.979 133.451 155.979 132.893C155.978 132.763 156.003 132.635 156.052 132.516C156.101 132.396 156.173 132.287 156.264 132.195C156.355 132.103 156.463 132.031 156.582 131.981C156.702 131.931 156.83 131.905 156.959 131.904H156.963ZM156.959 132.058C156.524 132.058 156.168 132.432 156.168 132.893C156.168 133.363 156.524 133.732 156.963 133.732C157.402 133.736 157.754 133.363 157.754 132.897C157.754 132.432 157.402 132.058 156.963 132.058H156.959ZM156.774 133.469H156.598V132.365C156.702 132.348 156.806 132.34 156.911 132.339C157.078 132.339 157.187 132.374 157.253 132.423C157.319 132.471 157.354 132.546 157.354 132.651C157.354 132.796 157.258 132.884 157.139 132.919V132.928C157.235 132.945 157.302 133.034 157.324 133.197C157.35 133.368 157.376 133.434 157.394 133.469H157.21C157.183 133.434 157.156 133.333 157.135 133.188C157.108 133.047 157.038 132.995 156.897 132.995H156.774V133.469V133.469ZM156.774 132.858H156.902C157.046 132.858 157.17 132.805 157.17 132.669C157.17 132.572 157.1 132.475 156.902 132.475C156.845 132.475 156.805 132.48 156.774 132.484V132.858V132.858Z" fill="#BFC3E0"/>
<g clip-path="url(#clip1)">
<path d="M145.67 203.004H146.657C150.084 203.08 153.455 204.488 155.876 206.979C154.982 207.911 154.069 208.805 153.194 209.737C151.834 208.482 150.195 207.512 148.407 207.169C145.763 206.599 142.913 207.112 140.697 208.653C138.276 210.27 136.637 213.009 136.283 215.938C135.892 218.829 136.693 221.872 138.537 224.116C140.306 226.303 143.006 227.673 145.8 227.768C148.407 227.92 151.127 227.102 153.026 225.238C154.516 223.926 155.205 221.929 155.429 219.989C152.337 219.989 149.246 220.008 146.154 219.989V216.071H159.172C159.843 220.274 158.874 225.01 155.745 228.015C153.659 230.145 150.773 231.401 147.83 231.648C144.981 231.933 142.038 231.382 139.505 229.974C136.469 228.319 134.048 225.524 132.856 222.233C131.739 219.209 131.72 215.785 132.763 212.742C133.713 209.965 135.538 207.512 137.885 205.8C140.138 204.107 142.876 203.175 145.67 203.004Z" fill="#BFC3E0"/>
<path d="M220.353 203.992H224.339V231.152C223.016 231.152 221.675 231.171 220.353 231.133C220.372 222.099 220.353 213.046 220.353 203.992V203.992Z" fill="#BFC3E0"/>
<path d="M168.038 213.407C170.496 212.932 173.159 213.464 175.189 214.967C177.033 216.298 178.318 218.39 178.709 220.673C179.212 223.316 178.579 226.207 176.903 228.299C175.096 230.639 172.135 231.894 169.248 231.704C166.604 231.552 164.033 230.201 162.469 227.995C160.7 225.561 160.271 222.213 161.24 219.36C162.208 216.298 164.946 213.959 168.038 213.407V213.407ZM168.596 217.021C167.591 217.287 166.659 217.877 165.989 218.714C164.182 220.92 164.294 224.515 166.287 226.569C167.423 227.748 169.136 228.299 170.72 227.976C172.191 227.71 173.476 226.702 174.184 225.37C175.413 223.107 175.059 219.988 173.178 218.219C171.967 217.078 170.198 216.602 168.596 217.021Z" fill="#BFC3E0"/>
<path d="M187.779 213.407C190.592 212.856 193.665 213.654 195.769 215.671C199.196 218.809 199.568 224.686 196.644 228.3C194.875 230.582 192.007 231.837 189.176 231.704C186.476 231.628 183.812 230.259 182.211 227.995C180.404 225.504 180.013 222.08 181.037 219.17C182.062 216.203 184.744 213.94 187.779 213.407V213.407ZM188.338 217.021C187.332 217.287 186.401 217.877 185.731 218.695C183.943 220.863 184.017 224.401 185.936 226.474C187.072 227.71 188.841 228.319 190.48 227.976C191.933 227.691 193.236 226.702 193.944 225.371C195.155 223.088 194.801 219.969 192.901 218.2C191.69 217.059 189.921 216.603 188.338 217.021Z" fill="#BFC3E0"/>
<path d="M204.523 214.51C206.664 213.141 209.514 212.76 211.823 213.94C212.55 214.263 213.145 214.815 213.723 215.366C213.741 214.853 213.723 214.32 213.741 213.787C214.989 213.806 216.237 213.787 217.504 213.806V230.582C217.485 233.112 216.852 235.793 215.064 237.638C213.108 239.673 210.11 240.301 207.409 239.883C204.523 239.445 202.008 237.296 200.891 234.576C202.008 234.024 203.182 233.587 204.336 233.073C204.988 234.633 206.31 235.964 207.968 236.269C209.626 236.573 211.544 236.155 212.624 234.747C213.779 233.302 213.779 231.324 213.723 229.555C212.866 230.411 211.879 231.172 210.687 231.457C208.098 232.199 205.249 231.286 203.256 229.498C201.245 227.71 200.053 224.952 200.164 222.213C200.22 219.113 201.934 216.127 204.523 214.51V214.51ZM208.378 216.945C207.242 217.135 206.18 217.782 205.454 218.676C203.703 220.806 203.703 224.21 205.472 226.302C206.478 227.539 208.098 228.223 209.663 228.052C211.134 227.9 212.494 226.949 213.22 225.637C214.449 223.411 214.244 220.387 212.587 218.447C211.562 217.249 209.924 216.659 208.378 216.945V216.945Z" fill="#BFC3E0"/>
<path d="M229.125 215.48C231.36 213.35 234.805 212.627 237.674 213.75C240.393 214.796 242.125 217.439 243 220.159C238.959 221.871 234.936 223.564 230.894 225.276C231.453 226.36 232.31 227.349 233.465 227.748C235.085 228.338 237.022 228.128 238.381 227.025C238.921 226.607 239.35 226.055 239.76 225.523C240.784 226.227 241.808 226.911 242.833 227.615C241.38 229.84 238.94 231.4 236.314 231.647C233.409 232.009 230.317 230.867 228.436 228.547C225.344 224.895 225.642 218.771 229.125 215.48V215.48ZM231.118 218.999C230.485 219.931 230.224 221.072 230.243 222.194C232.943 221.053 235.644 219.912 238.344 218.752C237.897 217.687 236.817 217.04 235.718 216.869C233.949 216.545 232.105 217.515 231.118 218.999V218.999Z" fill="#BFC3E0"/>
</g>
<g clip-path="url(#clip2)">
<path d="M273.5 296.286V293.322H269.743V288.715L269.617 288.753L266.089 289.81L266.019 289.831V293.323H260.45V291.378C260.45 290.472 260.657 289.779 261.064 289.317C261.469 288.86 262.047 288.628 262.785 288.628C263.316 288.628 263.865 288.75 264.418 288.992L264.556 289.052V285.931L264.491 285.907C263.975 285.726 263.274 285.634 262.405 285.634C261.309 285.634 260.314 285.868 259.445 286.331C258.577 286.795 257.893 287.457 257.415 288.298C256.938 289.139 256.696 290.11 256.696 291.184V293.322H254.08V296.286H256.696V308.773H260.45V296.286H266.019V304.222C266.019 307.49 267.592 309.146 270.695 309.146C271.205 309.146 271.741 309.087 272.289 308.973C272.847 308.855 273.227 308.737 273.45 308.612L273.5 308.583V305.592L273.347 305.691C273.143 305.824 272.89 305.933 272.592 306.013C272.293 306.096 272.044 306.137 271.85 306.137C271.124 306.137 270.586 305.945 270.252 305.566C269.915 305.184 269.744 304.516 269.744 303.581V296.286H273.5ZM245.695 306.138C244.332 306.138 243.258 305.695 242.5 304.822C241.738 303.946 241.352 302.696 241.352 301.108C241.352 299.47 241.738 298.187 242.501 297.295C243.258 296.409 244.323 295.959 245.664 295.959C246.966 295.959 248.003 296.389 248.745 297.237C249.491 298.089 249.87 299.361 249.87 301.018C249.87 302.696 249.514 303.985 248.812 304.847C248.114 305.703 247.066 306.138 245.695 306.138V306.138ZM245.862 292.95C243.262 292.95 241.197 293.697 239.724 295.169C238.253 296.642 237.506 298.68 237.506 301.227C237.506 303.646 238.235 305.592 239.671 307.009C241.108 308.427 243.063 309.146 245.482 309.146C248.002 309.146 250.026 308.389 251.498 306.896C252.97 305.405 253.715 303.386 253.715 300.899C253.715 298.442 253.016 296.481 251.635 295.073C250.254 293.664 248.311 292.95 245.862 292.95V292.95ZM231.453 292.95C229.684 292.95 228.221 293.394 227.103 294.268C225.979 295.147 225.408 296.3 225.408 297.695C225.408 298.421 225.532 299.065 225.774 299.612C226.018 300.16 226.395 300.643 226.896 301.048C227.393 301.45 228.161 301.871 229.178 302.299C230.033 302.644 230.671 302.935 231.076 303.165C231.472 303.391 231.753 303.617 231.912 303.838C232.066 304.054 232.145 304.349 232.145 304.714C232.145 305.752 231.351 306.257 229.719 306.257C229.113 306.257 228.423 306.133 227.666 305.889C226.915 305.648 226.206 305.296 225.564 304.844L225.408 304.735V308.277L225.465 308.303C225.997 308.543 226.666 308.746 227.456 308.905C228.244 309.065 228.96 309.146 229.582 309.146C231.501 309.146 233.047 308.701 234.174 307.822C235.309 306.936 235.885 305.756 235.885 304.312C235.885 303.271 235.575 302.378 234.965 301.657C234.358 300.943 233.306 300.287 231.839 299.707C230.67 299.247 229.921 298.866 229.612 298.573C229.314 298.29 229.163 297.889 229.163 297.383C229.163 296.933 229.35 296.573 229.733 296.282C230.119 295.989 230.657 295.84 231.331 295.84C231.957 295.84 232.597 295.937 233.233 296.126C233.869 296.316 234.428 296.57 234.894 296.881L235.048 296.984V293.624L234.989 293.599C234.559 293.418 233.991 293.263 233.302 293.138C232.616 293.013 231.994 292.95 231.453 292.95V292.95ZM215.62 306.138C214.257 306.138 213.182 305.695 212.425 304.822C211.663 303.946 211.278 302.696 211.278 301.108C211.278 299.47 211.664 298.187 212.426 297.295C213.183 296.409 214.247 295.959 215.59 295.959C216.891 295.959 217.928 296.389 218.67 297.237C219.416 298.089 219.795 299.361 219.795 301.018C219.795 302.696 219.439 303.985 218.737 304.847C218.039 305.703 216.991 306.138 215.62 306.138V306.138ZM215.787 292.95C213.186 292.95 211.121 293.697 209.649 295.169C208.178 296.642 207.431 298.68 207.431 301.227C207.431 303.647 208.16 305.592 209.597 307.009C211.033 308.427 212.988 309.146 215.407 309.146C217.927 309.146 219.951 308.389 221.423 306.896C222.895 305.405 223.641 303.386 223.641 300.899C223.641 298.442 222.941 296.481 221.56 295.073C220.178 293.664 218.236 292.95 215.787 292.95V292.95ZM201.732 295.998V293.322H198.023V308.773H201.732V300.869C201.732 299.526 202.043 298.421 202.656 297.588C203.262 296.764 204.069 296.346 205.055 296.346C205.389 296.346 205.764 296.4 206.17 296.507C206.572 296.613 206.863 296.728 207.035 296.849L207.191 296.96V293.296L207.131 293.271C206.786 293.127 206.297 293.054 205.679 293.054C204.747 293.054 203.912 293.348 203.198 293.926C202.571 294.434 202.118 295.13 201.771 295.998H201.732ZM191.38 292.95C189.679 292.95 188.161 293.308 186.87 294.013C185.576 294.719 184.576 295.728 183.895 297.01C183.217 298.289 182.873 299.784 182.873 301.45C182.873 302.91 183.207 304.25 183.866 305.431C184.526 306.613 185.46 307.539 186.642 308.18C187.822 308.821 189.186 309.146 190.697 309.146C192.46 309.146 193.964 308.801 195.171 308.12L195.22 308.092V304.763L195.064 304.874C194.517 305.264 193.907 305.576 193.249 305.8C192.594 306.024 191.996 306.138 191.472 306.138C190.017 306.138 188.848 305.691 188 304.812C187.15 303.931 186.719 302.694 186.719 301.137C186.719 299.571 187.169 298.302 188.054 297.366C188.937 296.433 190.108 295.959 191.533 295.959C192.752 295.959 193.94 296.364 195.064 297.162L195.22 297.273V293.765L195.17 293.737C194.747 293.505 194.17 293.314 193.454 293.168C192.741 293.023 192.043 292.95 191.38 292.95V292.95ZM180.319 293.323H176.61V308.773H180.319V293.323V293.323ZM178.502 286.741C177.892 286.741 177.359 286.944 176.922 287.348C176.483 287.752 176.26 288.262 176.26 288.863C176.26 289.455 176.48 289.955 176.915 290.349C177.347 290.742 177.882 290.941 178.502 290.941C179.123 290.941 179.659 290.742 180.097 290.35C180.537 289.955 180.76 289.455 180.76 288.863C180.76 288.283 180.543 287.779 180.115 287.364C179.687 286.95 179.144 286.741 178.502 286.741ZM169.248 292.183V308.773H173.033V287.214H167.794L161.135 303.227L154.673 287.214H149.221V308.773H152.778V292.181H152.9L159.724 308.773H162.408L169.126 292.183H169.248V292.183Z" fill="#BFC3E0"/>
<path d="M118.948 297.106H101.5V280.009H118.948V297.106Z" fill="#BFC3E0"/>
<path d="M138.213 297.107H120.765V280.01H138.213V297.107Z" fill="#BFC3E0"/>
<path d="M118.948 315.991H101.5V298.894H118.948V315.991Z" fill="#BFC3E0"/>
<path d="M138.213 315.991H120.765V298.894H138.213V315.991Z" fill="#BFC3E0"/>
</g>
<defs>
<clipPath id="clip0">
<rect width="134" height="43" fill="white" transform="translate(120.5 48)"/>
</clipPath>
<clipPath id="clip1">
<rect width="111" height="37" fill="white" transform="translate(132 203)"/>
</clipPath>
<clipPath id="clip2">
<rect width="172" height="36" fill="white" transform="translate(101.5 280)"/>
</clipPath>
</defs>
</svg>
