<svg width="87" height="86" viewBox="0 0 87 86" fill="none" xmlns="http://www.w3.org/2000/svg">
<g clip-path="url(#clip0)">
<path d="M43.5 68.0834C41.3739 68.0834 39.2955 67.4529 37.5276 66.2717C35.7598 65.0905 34.3819 63.4115 33.5683 61.4472C32.7547 59.4829 32.5418 57.3215 32.9566 55.2362C33.3714 53.1509 34.3952 51.2354 35.8986 49.732C37.402 48.2286 39.3175 47.2047 41.4028 46.7899C43.4881 46.3751 45.6495 46.588 47.6139 47.4017C49.5782 48.2153 51.2571 49.5932 52.4383 51.361C53.6195 53.1288 54.25 55.2072 54.25 57.3334C54.2472 60.1836 53.1137 62.9162 51.0983 64.9316C49.0829 66.947 46.3502 68.0805 43.5 68.0834ZM43.5 50.1667C42.0826 50.1667 40.697 50.587 39.5184 51.3745C38.3399 52.162 37.4213 53.2813 36.8789 54.5908C36.3364 55.9004 36.1945 57.3413 36.471 58.7315C36.7476 60.1217 37.4301 61.3987 38.4324 62.401C39.4347 63.4033 40.7117 64.0858 42.1019 64.3623C43.4921 64.6389 44.933 64.4969 46.2426 63.9545C47.5521 63.4121 48.6714 62.4935 49.4589 61.315C50.2464 60.1364 50.6667 58.7508 50.6667 57.3334C50.6667 55.4327 49.9116 53.6098 48.5676 52.2658C47.2236 50.9218 45.4007 50.1667 43.5 50.1667Z" fill="#0C84CA"/>
<path d="M56.0415 86H30.9582C30.483 86 30.0273 85.8112 29.6913 85.4752C29.3553 85.1392 29.1665 84.6835 29.1665 84.2083V73.4583C29.1693 71.0833 30.1141 68.8064 31.7935 67.127C33.4729 65.4476 35.7498 64.5028 38.1248 64.5H48.8748C51.2499 64.5028 53.5268 65.4476 55.2062 67.127C56.8856 68.8064 57.8303 71.0833 57.8332 73.4583V84.2083C57.8332 84.6835 57.6444 85.1392 57.3084 85.4752C56.9724 85.8112 56.5167 86 56.0415 86ZM32.7498 82.4167H54.2498V73.4583C54.2498 72.0328 53.6835 70.6656 52.6755 69.6576C51.6675 68.6496 50.3004 68.0833 48.8748 68.0833H38.1248C36.6993 68.0833 35.3321 68.6496 34.3241 69.6576C33.3161 70.6656 32.7498 72.0328 32.7498 73.4583V82.4167Z" fill="#0C84CA"/>
<path d="M65 66.2917C64.7645 66.2924 64.5312 66.2461 64.3138 66.1555C63.9865 66.0198 63.7068 65.7901 63.51 65.4954C63.3132 65.2007 63.2082 64.8543 63.2083 64.5V57.3333H57.8333V53.75H65C65.4752 53.75 65.9309 53.9388 66.2669 54.2748C66.6029 54.6108 66.7917 55.0665 66.7917 55.5417V60.1749L72.6916 54.275C73.0275 53.9389 73.4832 53.7501 73.9583 53.75H81.125C81.6002 53.75 82.0559 53.5612 82.3919 53.2252C82.7279 52.8892 82.9167 52.4335 82.9167 51.9583V37.625C82.9167 37.1498 82.7279 36.6941 82.3919 36.3581C82.0559 36.0221 81.6002 35.8333 81.125 35.8333H48.875C48.3998 35.8333 47.9441 36.0221 47.6081 36.3581C47.2721 36.6941 47.0833 37.1498 47.0833 37.625V43H43.5V37.625C43.5 36.1995 44.0663 34.8323 45.0743 33.8243C46.0823 32.8163 47.4495 32.25 48.875 32.25H81.125C82.5505 32.25 83.9177 32.8163 84.9257 33.8243C85.9337 34.8323 86.5 36.1995 86.5 37.625V51.9583C86.5 53.3839 85.9337 54.751 84.9257 55.759C83.9177 56.767 82.5505 57.3333 81.125 57.3333H74.7001L66.2667 65.7667C65.9308 66.1027 65.4751 66.2916 65 66.2917V66.2917Z" fill="#0C84CA"/>
<path d="M79.3333 43H75.75V46.5833H79.3333V43Z" fill="#0C84CA"/>
<path d="M72.1668 43H52.4585V46.5833H72.1668V43Z" fill="#0C84CA"/>
<path d="M66.7917 10.75H2.29167C1.81649 10.75 1.36077 10.5612 1.02477 10.2252C0.688764 9.88923 0.5 9.43351 0.5 8.95833V5.375C0.5 3.94946 1.06629 2.58231 2.0743 1.5743C3.08231 0.566293 4.44946 0 5.875 0L63.2083 0C64.6339 0 66.001 0.566293 67.009 1.5743C68.017 2.58231 68.5833 3.94946 68.5833 5.375V8.95833C68.5833 9.43351 68.3946 9.88923 68.0586 10.2252C67.7226 10.5612 67.2668 10.75 66.7917 10.75ZM4.08333 7.16667H65V5.375C65 4.89982 64.8112 4.4441 64.4752 4.1081C64.1392 3.7721 63.6835 3.58333 63.2083 3.58333H5.875C5.39982 3.58333 4.9441 3.7721 4.6081 4.1081C4.2721 4.4441 4.08333 4.89982 4.08333 5.375V7.16667Z" fill="#0C84CA"/>
<path d="M64.9998 8.95837H61.4165V28.6667H64.9998V8.95837Z" fill="#0C84CA"/>
<path d="M29.1668 59.125H9.4585C8.03296 59.125 6.66581 58.5587 5.6578 57.5507C4.64979 56.5427 4.0835 55.1756 4.0835 53.75V8.95837H7.66683V53.75C7.66683 54.2252 7.85559 54.6809 8.1916 55.0169C8.5276 55.3529 8.98332 55.5417 9.4585 55.5417H29.1668V59.125Z" fill="#0C84CA"/>
<path d="M20.2083 51.9583H16.625C15.1995 51.9583 13.8323 51.392 12.8243 50.384C11.8163 49.376 11.25 48.0089 11.25 46.5833V43H14.8333V46.5833C14.8333 47.0585 15.0221 47.5142 15.3581 47.8502C15.6941 48.1862 16.1498 48.375 16.625 48.375H20.2083V51.9583Z" fill="#0C84CA"/>
<path d="M14.8333 35.8334H11.25V39.4167H14.8333V35.8334Z" fill="#0C84CA"/>
<path d="M34.5418 43C31.707 43 28.9358 42.1594 26.5787 40.5844C24.2216 39.0095 22.3844 36.7709 21.2996 34.1518C20.2147 31.5328 19.9309 28.6508 20.4839 25.8704C21.037 23.09 22.4021 20.5361 24.4066 18.5315C26.4112 16.527 28.9651 15.1618 31.7455 14.6088C34.5259 14.0557 37.4079 14.3396 40.027 15.4244C42.646 16.5093 44.8846 18.3464 46.4596 20.7035C48.0345 23.0606 48.8752 25.8318 48.8752 28.6667H45.2918C45.2918 26.5406 44.6614 24.4622 43.4801 22.6943C42.2989 20.9265 40.62 19.5487 38.6557 18.735C36.6914 17.9214 34.5299 17.7085 32.4446 18.1233C30.3593 18.5381 28.4439 19.5619 26.9404 21.0653C25.437 22.5687 24.4132 24.4842 23.9984 26.5695C23.5836 28.6548 23.7965 30.8163 24.6101 32.7806C25.4238 34.7449 26.8016 36.4238 28.5695 37.605C30.3373 38.7862 32.4157 39.4167 34.5418 39.4167V43Z" fill="#0C84CA"/>
<path d="M26.8498 38.8917L24.3164 36.3583L32.7498 27.9249V16.125H36.3331V28.6667C36.333 29.1418 36.1442 29.5975 35.8082 29.9334L26.8498 38.8917Z" fill="#0C84CA"/>
</g>
<defs>
<clipPath id="clip0">
<rect width="86" height="86" fill="white" transform="translate(0.5)"/>
</clipPath>
</defs>
</svg>
